<svg width="61" height="60" viewBox="0 0 61 60" fill="none" xmlns="http://www.w3.org/2000/svg">
<g opacity="0.75" clip-path="url(#clip0)">
<path d="M56.2444 23.4783H51.361C50.9514 22.1413 50.4153 20.85 49.7644 19.62L53.2144 16.17C53.9527 15.4317 54.3596 14.4483 54.3596 13.4009C54.3596 12.3548 53.9527 11.3713 53.2144 10.633L49.5231 6.94174C48.0479 5.46652 45.4653 5.46261 43.9875 6.94174L40.5375 10.3917C39.3088 9.74087 38.0162 9.20609 36.6792 8.79522V3.91304C36.6792 1.75565 34.9236 0 32.7662 0H27.5488C25.3914 0 23.6357 1.75565 23.6357 3.91304V8.79652C22.2988 9.20739 21.0075 9.74217 19.7775 10.393L16.3262 6.94304C14.8001 5.41696 12.3166 5.41696 10.7905 6.94304L7.09791 10.6343C5.57312 12.1604 5.57312 14.6439 7.09791 16.17L10.5479 19.6213C9.89704 20.85 9.36225 22.1426 8.95138 23.4796H4.07051C1.91312 23.4796 0.157471 25.2352 0.157471 27.3926V32.61C0.157471 34.7661 1.91312 36.5217 4.07051 36.5217H8.95399C9.36486 37.8587 9.89964 39.15 10.5505 40.38L7.10051 43.8313C5.57443 45.3574 5.57443 47.8409 7.10051 49.367L10.7918 53.0596C12.3179 54.5844 14.8014 54.5844 16.3275 53.0596L19.7788 49.6096C21.0075 50.2604 22.3001 50.7952 23.637 51.2061V56.087C23.637 58.2444 25.3927 60 27.5501 60H32.7675C34.9249 60 36.6805 58.2444 36.6805 56.087V51.2035C38.0175 50.7926 39.3101 50.2578 40.5388 49.607L43.9888 53.0583C45.4679 54.5361 48.0505 54.5335 49.5244 53.0583L53.2157 49.367C53.954 48.6287 54.361 47.6452 54.361 46.5991C54.361 45.5517 53.954 44.5696 53.2157 43.8313L49.7657 40.38C50.4166 39.1513 50.9514 37.8587 51.3623 36.5217H56.2444C58.4018 36.5217 60.1575 34.7661 60.1575 32.6087V27.3913C60.1575 25.2339 58.4018 23.4783 56.2444 23.4783ZM57.5488 32.6087C57.5488 33.3274 56.9644 33.913 56.2444 33.913H50.3749C49.7801 33.913 49.261 34.3161 49.1123 34.8913C48.6505 36.6717 47.9475 38.3713 47.0201 39.9417C46.7188 40.4543 46.801 41.1065 47.221 41.5265L51.3688 45.6757C51.614 45.9209 51.7496 46.2483 51.7496 46.5991C51.7496 46.95 51.614 47.2774 51.3688 47.5226L47.6775 51.2139C47.187 51.7043 46.3223 51.7043 45.8305 51.2139L41.6827 47.0661C41.2627 46.6448 40.6105 46.5639 40.0966 46.8652C38.5288 47.7913 36.8292 48.4957 35.0475 48.9561C34.4736 49.1035 34.0705 49.6226 34.0705 50.2174V56.087C34.0705 56.8057 33.4862 57.3913 32.7662 57.3913H27.5488C26.8301 57.3913 26.2444 56.8057 26.2444 56.087V50.2174C26.2444 49.6226 25.8414 49.1035 25.2662 48.9548C23.4857 48.4944 21.7862 47.7913 20.2157 46.8639C20.0096 46.7413 19.7814 46.6826 19.5531 46.6826C19.2153 46.6826 18.8814 46.813 18.6296 47.0648L14.4818 51.2126C13.9718 51.7213 13.1449 51.7213 12.6349 51.2126L8.94356 47.5213C8.43356 47.0113 8.43356 46.183 8.94356 45.6743L13.0914 41.5265C13.5127 41.1052 13.5949 40.453 13.2923 39.9417C12.3662 38.3713 11.6618 36.673 11.2014 34.8913C11.054 34.3161 10.5349 33.913 9.94008 33.913H4.07051C3.35182 33.913 2.76617 33.3274 2.76617 32.6087V27.3913C2.76617 26.6726 3.35182 26.087 4.07051 26.087H9.94008C10.5349 26.087 11.054 25.6839 11.2027 25.1087C11.6631 23.3283 12.3662 21.6287 13.2936 20.0583C13.5962 19.5457 13.514 18.8935 13.0927 18.4735L8.94486 14.3257C8.43617 13.817 8.43617 12.9887 8.94486 12.4787L12.6362 8.78739C13.1462 8.27739 13.9731 8.2787 14.4831 8.78739L18.6309 12.9352C19.0523 13.3565 19.7031 13.44 20.2157 13.1361C21.7862 12.21 23.4844 11.5057 25.2662 11.0452C25.8414 10.8965 26.2444 10.3774 26.2444 9.78261V3.91304C26.2444 3.19435 26.8301 2.6087 27.5488 2.6087H32.7662C33.4862 2.6087 34.0705 3.19435 34.0705 3.91304V9.78261C34.0705 10.3774 34.4736 10.8965 35.0488 11.0452C36.8305 11.5057 38.5301 12.21 40.0979 13.1361C40.6118 13.4387 41.264 13.3578 41.684 12.9352L45.8318 8.78739C46.3236 8.29435 47.1883 8.29565 47.6788 8.78739L51.3701 12.4787C51.6153 12.7239 51.7509 13.0526 51.7509 13.4022C51.7509 13.7517 51.6153 14.0804 51.3701 14.3257L47.2223 18.4735C46.8023 18.8948 46.7188 19.547 47.0214 20.0583C47.9488 21.6287 48.6518 23.327 49.1136 25.1087C49.261 25.6839 49.7801 26.087 50.3749 26.087H56.2444C56.9644 26.087 57.5488 26.6726 57.5488 27.3913V32.6087Z" fill="black"/>
<path d="M30.1575 18.2607C23.6853 18.2607 18.4183 23.5277 18.4183 29.9999C18.4183 36.472 23.6853 41.739 30.1575 41.739C36.6309 41.739 41.8966 36.472 41.8966 29.9999C41.8966 23.5277 36.6309 18.2607 30.1575 18.2607ZM30.1575 39.1303C25.1227 39.1303 21.027 35.0347 21.027 29.9999C21.027 24.9651 25.1227 20.8694 30.1575 20.8694C35.1909 20.8694 39.2879 24.9651 39.2879 29.9999C39.2879 35.0347 35.1909 39.1303 30.1575 39.1303Z" fill="black"/>
</g>
<defs>
<clipPath id="clip0">
<rect width="60" height="60" fill="white" transform="translate(0.157471)"/>
</clipPath>
</defs>
</svg>
