<svg width="61" height="60" viewBox="0 0 61 60" fill="none" xmlns="http://www.w3.org/2000/svg">
<g opacity="0.75" clip-path="url(#clip0)">
<path d="M36.9438 24.4268L27.9288 32.9417L23.6022 28.4906C23.1226 27.9968 22.3328 27.9855 21.8394 28.4652C21.3456 28.9453 21.3344 29.7346 21.8141 30.2284L27.0032 35.5553C27.4853 36.0403 28.2643 36.0569 28.7664 35.5924L38.6821 26.2399C38.9229 26.0128 39.0636 25.6992 39.0729 25.3685C39.0821 25.0378 38.9595 24.7169 38.7319 24.4766C38.2494 23.975 37.4537 23.953 36.9438 24.4268Z" fill="black"/>
<path d="M30.2542 11.3223C19.9512 11.3223 11.5735 19.6999 11.5735 30.0029C11.5735 40.3064 19.9512 48.684 30.2542 48.684C40.5577 48.684 48.9353 40.3064 48.9353 30.0029C48.9353 19.6999 40.5577 11.3223 30.2542 11.3223ZM30.2542 46.1833C21.3266 46.1833 14.0743 38.9183 14.0743 30.0029C14.0743 21.0875 21.3266 13.823 30.2542 13.823C39.1906 13.823 46.4345 21.067 46.4345 30.0029C46.4345 38.9388 39.1906 46.1833 30.2542 46.1833Z" fill="black"/>
<path d="M55.9624 23.126L56.3752 15.7111C56.404 15.2134 56.1334 14.7459 55.6875 14.5232L49.0853 11.1848L45.7468 4.58261C45.5197 4.14058 45.0552 3.87145 44.559 3.89489L37.1314 4.29541L30.9419 0.206241C30.5248 -0.0687471 29.9841 -0.0687471 29.5665 0.206241L23.377 4.29541L15.9626 3.88268C15.4644 3.85338 14.9975 4.12397 14.7747 4.5704L11.4358 11.1726L4.83413 14.511C4.39161 14.7376 4.12297 15.2021 4.14642 15.6989L4.55866 23.1138L0.469974 29.3032C0.194986 29.7204 0.194986 30.261 0.469974 30.6787L4.54645 36.8803L4.13372 44.2952C4.1049 44.7929 4.37501 45.2604 4.82143 45.4831L11.4236 48.8215L14.762 55.4237C14.9887 55.8662 15.4532 56.1349 15.9499 56.1114L23.3648 55.6987L29.5543 59.7874C29.969 60.0711 30.515 60.0711 30.9297 59.7874L37.1191 55.6987L44.5341 56.1114C45.0318 56.1402 45.4987 55.8696 45.7219 55.4237L49.0604 48.8215L55.6625 45.4831C56.1046 45.256 56.3737 44.792 56.3503 44.2952L55.9375 36.8803L60.0262 30.6909C60.3012 30.2737 60.3012 29.7326 60.0262 29.3154L55.9624 23.126ZM53.6365 35.8551C53.4841 36.0788 53.4133 36.3479 53.4368 36.618L53.8241 43.6324L47.5848 46.7833C47.347 46.9025 47.154 47.0959 47.0348 47.3338L43.8835 53.573L36.8691 53.1857C36.6004 53.1759 36.3352 53.2453 36.1061 53.3855L30.2542 57.2495L24.4028 53.3855C24.1996 53.2482 23.9602 53.174 23.715 53.173H23.6525L16.6376 53.5608L13.4867 47.3211C13.3676 47.0832 13.1746 46.8903 12.9363 46.7711L6.68432 43.6324L7.07214 36.618C7.08191 36.3494 7.01206 36.0842 6.87188 35.8551L3.00837 30.0032L6.87188 24.1512C7.02476 23.928 7.09558 23.6584 7.07214 23.3888L6.68432 16.3739L12.9241 13.223C13.1619 13.1038 13.3549 12.9109 13.474 12.673L16.6249 6.43329L23.6398 6.8211C23.908 6.83038 24.1732 6.76102 24.4028 6.62084L30.2542 2.75733L36.1061 6.62084C36.3298 6.77372 36.5994 6.84455 36.8691 6.8211L43.8835 6.43329L47.0348 12.673C47.154 12.9109 47.347 13.1038 47.5848 13.223L53.8241 16.3739L53.4368 23.3888C53.427 23.6569 53.4968 23.9221 53.6365 24.1512L57.5005 30.0032L53.6365 35.8551Z" fill="black"/>
</g>
<defs>
<clipPath id="clip0">
<rect width="60" height="60" fill="white" transform="translate(0.157471)"/>
</clipPath>
</defs>
</svg>
