<svg width="61" height="60" viewBox="0 0 61 60" fill="none" xmlns="http://www.w3.org/2000/svg">
<g opacity="0.75" clip-path="url(#clip0)">
<path d="M60.1575 34.1758C60.1575 25.98 56.8528 18.5425 51.5072 13.1227C51.4655 13.0672 51.4211 13.0129 51.3705 12.9623C51.32 12.9118 51.2659 12.8673 51.2104 12.8258C45.7905 7.48031 38.3531 4.17578 30.1575 4.17578C21.9619 4.17578 14.5244 7.4805 9.10436 12.8258C9.04888 12.8675 8.99478 12.912 8.94423 12.9623C8.89367 13.0129 8.84921 13.067 8.8075 13.1227C3.46219 18.5425 0.157471 25.98 0.157471 34.1758C0.157471 42.188 3.27727 49.7203 8.94206 55.3865C8.94285 55.3873 8.94363 55.3882 8.94442 55.389C8.94501 55.3894 8.94541 55.39 8.946 55.3904C8.94678 55.3912 8.94757 55.392 8.94836 55.3928C9.23636 55.6808 9.61386 55.8246 9.99137 55.8246C10.3691 55.8246 10.7468 55.6806 11.0348 55.3924C11.0594 55.3678 11.0816 55.3416 11.104 55.3157L15.6507 50.7688C16.2268 50.1924 16.2268 49.2584 15.6507 48.6822C15.0745 48.1062 14.1402 48.1062 13.5642 48.6822L10.0162 52.2303C5.87891 47.6264 3.47872 41.8322 3.14862 35.6512H8.16639C8.98121 35.6512 9.6418 34.9908 9.6418 34.1758C9.6418 33.3608 8.98121 32.7004 8.16639 32.7004H3.14901C3.49209 26.3518 6.03452 20.5788 10.0258 16.1307L13.5642 19.6692C13.8522 19.9572 14.2299 20.1012 14.6074 20.1012C14.9849 20.1012 15.3627 19.9572 15.6507 19.6692C16.2268 19.0928 16.2268 18.1587 15.6507 17.5825L12.1124 14.0439C16.5607 10.0526 22.3335 7.51021 28.6821 7.16732V12.1849C28.6821 12.9999 29.3427 13.6603 30.1575 13.6603C30.9723 13.6603 31.6329 12.9999 31.6329 12.1849V7.16732C37.9815 7.51021 43.7543 10.0528 48.2025 14.0441L44.6641 17.5825C44.0879 18.1589 44.0879 19.093 44.6641 19.6692C44.9521 19.9572 45.3298 20.1012 45.7073 20.1012C46.0848 20.1012 46.4625 19.9572 46.7505 19.6692L50.2889 16.1307C54.2802 20.579 56.8228 26.3518 57.1657 32.7004H52.1482C51.3333 32.7004 50.6728 33.3608 50.6728 34.1758C50.6728 34.9908 51.3333 35.6512 52.1482 35.6512H57.1659C56.8358 41.8322 54.4358 47.6266 50.2986 52.2305L46.7505 48.6822C46.1745 48.1062 45.2403 48.1062 44.6641 48.6822C44.0879 49.2586 44.0879 50.1926 44.6641 50.7688L49.2841 55.3888C49.5721 55.6768 49.9498 55.8208 50.3273 55.8208C50.516 55.8208 50.7048 55.7848 50.8825 55.7128C51.0601 55.6408 51.2265 55.5328 51.3707 55.3888C57.0369 49.7225 60.1575 42.1888 60.1575 34.1758Z" fill="url(#paint0_linear)"/>
<path d="M36.9357 17.2562C36.1789 16.953 35.3204 17.3205 35.0175 18.0771L30.7539 28.7197C30.5552 28.6985 30.3566 28.6839 30.1577 28.6839C28.0811 28.6839 26.2053 29.8342 25.2621 31.6857C24.2761 33.6212 24.5287 35.9339 25.9372 37.8716C26.0812 38.0697 26.2622 38.2509 26.4617 38.3959C27.606 39.2278 28.8841 39.6675 30.1577 39.6675C32.2343 39.6675 34.1102 38.5172 35.0533 36.6657C36.0392 34.7302 35.7867 32.4177 34.3791 30.4814C34.2351 30.2827 34.0537 30.1009 33.8537 29.9553C33.7461 29.877 33.6361 29.8056 33.5261 29.7344L37.7566 19.1742C38.0596 18.418 37.6921 17.5591 36.9357 17.2562ZM32.4237 35.3262C31.9868 36.1837 31.1185 36.7165 30.1575 36.7165C29.5272 36.7165 28.8928 36.4963 28.2711 36.062C27.5629 35.0451 27.4238 33.9427 27.8914 33.025C28.3282 32.1675 29.1965 31.6347 30.1577 31.6347C30.4642 31.6347 30.7714 31.6879 31.0779 31.7911C31.088 31.7953 31.0972 31.8006 31.1074 31.8047C31.1397 31.8175 31.1722 31.8279 31.2046 31.8384C31.4859 31.9464 31.7661 32.0951 32.0438 32.289C32.7518 33.3059 32.8911 34.4085 32.4237 35.3262Z" fill="url(#paint1_linear)"/>
</g>
<defs>
<linearGradient id="paint0_linear" x1="30.1575" y1="4.17578" x2="30.1575" y2="55.8246" gradientUnits="userSpaceOnUse">
<stop/>
</linearGradient>
<linearGradient id="paint1_linear" x1="31.2654" y1="17.1499" x2="31.2654" y2="39.6675" gradientUnits="userSpaceOnUse">
<stop/>
</linearGradient>
<clipPath id="clip0">
<rect width="60" height="60" fill="white" transform="translate(0.157471)"/>
</clipPath>
</defs>
</svg>
