<svg width="61" height="60" viewBox="0 0 61 60" fill="none" xmlns="http://www.w3.org/2000/svg">
<g opacity="0.75" clip-path="url(#clip0)">
<path d="M0.347276 5.5039L4.3488 12.5062C4.48377 12.7428 4.70969 12.914 4.97388 12.9802L8.7071 13.9135L21.5112 26.7176L22.926 25.3033L9.92146 12.2992C9.79348 12.1708 9.633 12.0798 9.45728 12.0358L5.87015 11.1358L2.46326 5.17058L5.38416 2.24969L11.3519 5.65987L12.2523 9.247C12.2959 9.42312 12.3872 9.58402 12.5152 9.712L25.5197 22.7165L26.9341 21.3018L14.13 8.49764L13.1967 4.76648C13.1304 4.50188 12.9592 4.27555 12.7226 4.14016L5.71995 0.139051C5.32943 -0.0831641 4.83808 -0.0173225 4.51957 0.299951L0.518464 4.30147C0.196663 4.61792 0.126707 5.11009 0.347276 5.5039Z" fill="url(#paint0_linear)"/>
<path d="M41.9365 19.7151L19.9294 41.7227L18.5146 40.3079L40.5222 18.3008L41.9365 19.7151Z" fill="url(#paint1_linear)"/>
<path d="M16.0776 42.5008C15.8966 42.1996 15.5715 42.0156 15.2201 42.0156H9.21819C8.86717 42.0156 8.54167 42.1996 8.36102 42.5008L5.35988 47.5023C5.16935 47.8192 5.16935 48.2154 5.35988 48.5327L8.36102 53.5342C8.54167 53.835 8.86717 54.0194 9.21819 54.0194H15.2201C15.5715 54.0194 15.8966 53.835 16.0776 53.5342L19.0784 48.5327C19.2689 48.2154 19.2689 47.8192 19.0784 47.5023L16.0776 42.5008ZM14.6542 52.0186H9.78443L7.38368 48.0175L9.78443 44.016H14.6542L17.055 48.0175L14.6542 52.0186Z" fill="url(#paint2_linear)"/>
<path d="M48.231 24.0099C54.8378 24.0321 60.2121 18.694 60.2343 12.0872C60.2376 11.0815 60.1141 10.0799 59.8668 9.10503C59.7335 8.56884 59.1907 8.24251 58.6545 8.37584C58.4784 8.41987 58.3179 8.51081 58.1895 8.63879L51.9625 14.8616L47.0219 13.2152L45.3743 8.27584L51.6012 2.04765C51.9918 1.65671 51.9913 1.0234 51.6004 0.632878C51.4716 0.504076 51.3095 0.412721 51.1321 0.369101C44.7249 -1.25348 38.2161 2.625 36.5935 9.03179C36.347 10.0038 36.2239 11.0029 36.2272 12.0058C36.2297 12.7934 36.3108 13.5786 36.4704 14.3497L14.5629 36.2568C13.7917 36.0976 13.0065 36.0165 12.2193 36.0136C5.5895 36.0136 0.215179 41.3879 0.215179 48.0178C0.215179 54.6472 5.5895 60.0215 12.2193 60.0215C18.8488 60.0215 24.2231 54.6472 24.2231 48.0178C24.2206 47.2301 24.1391 46.445 23.9799 45.6738L29.2246 40.4291L31.5183 42.7229C31.9093 43.1134 32.5422 43.1134 32.9331 42.7229L33.4331 42.2225C33.8717 41.7867 34.5808 41.7867 35.0194 42.2225C35.4577 42.6595 35.4585 43.369 35.0215 43.8072C35.0211 43.8076 35.0203 43.8084 35.0194 43.8093L34.5195 44.3093C34.1289 44.6998 34.1289 45.3331 34.5195 45.7236L46.4524 57.6566C49.591 60.8239 54.7028 60.847 57.8702 57.7084C61.0372 54.5698 61.0602 49.4576 57.9216 46.2907C57.9047 46.2734 57.8875 46.2561 57.8702 46.2388L45.9372 34.3063C45.5467 33.9158 44.9134 33.9158 44.5229 34.3063L44.0229 34.8063C43.5838 35.2425 42.8752 35.2425 42.4361 34.8063C41.9982 34.3692 41.997 33.6598 42.434 33.222C42.4348 33.2211 42.4357 33.2207 42.4361 33.2199L42.9365 32.7195C43.327 32.329 43.327 31.6957 42.9365 31.3051L40.6427 29.0114L45.8874 23.7667C46.6586 23.926 47.4437 24.0074 48.231 24.0099ZM52.1613 58.0212C51.4346 58.0199 50.714 57.8886 50.0338 57.6331L57.8463 49.8202C59.0253 52.9563 57.4389 56.4541 54.3028 57.6331C53.6185 57.8903 52.893 58.022 52.1613 58.0212ZM40.8287 32.0224C39.7209 33.3438 39.8946 35.3132 41.216 36.4206C42.3772 37.3938 44.0698 37.393 45.2298 36.4177L56.4558 47.6536C56.5776 47.7758 56.6916 47.9046 56.8019 48.0355L48.2491 56.5883C48.1178 56.4784 47.989 56.3644 47.8668 56.2422L36.6321 45.0068C37.7399 43.6854 37.5663 41.7159 36.2449 40.6086C35.0836 39.6349 33.3907 39.6362 32.2306 40.611L30.6303 39.0107L39.228 30.4257L40.8287 32.0224ZM44.8681 21.9614L22.1754 44.6496C21.9264 44.8981 21.8264 45.259 21.9112 45.6002C23.2836 50.9897 20.0269 56.4714 14.637 57.8434C9.24741 59.2158 3.76569 55.9591 2.3933 50.5691C1.02133 45.1796 4.27802 39.6979 9.66797 38.3255C11.2984 37.9107 13.0065 37.9107 14.637 38.3255C14.9781 38.409 15.3382 38.309 15.5875 38.0617L38.2749 15.3731C38.5234 15.1246 38.6234 14.7637 38.5379 14.423C37.1749 9.09639 40.388 3.67352 45.7146 2.31019C46.7211 2.053 47.7623 1.95424 48.7993 2.01884L43.5225 7.29768C43.2546 7.56517 43.1608 7.96145 43.2805 8.3207L45.2809 14.323C45.3808 14.6213 45.6154 14.8559 45.9142 14.9551L51.9164 16.9558C52.2753 17.0756 52.6716 16.9821 52.9395 16.7147L58.2163 11.4379C58.2282 11.6288 58.2344 11.8177 58.2344 12.0058C58.2623 17.5023 53.8296 21.9808 48.333 22.0091C47.4833 22.0133 46.6364 21.9087 45.8133 21.698C45.4722 21.6129 45.1113 21.7124 44.8628 21.961H44.8681V21.9614Z" fill="url(#paint3_linear)"/>
<path d="M51.9403 50.3111L50.5256 51.7258L40.5226 41.7229L41.9369 40.3081L51.9403 50.3111Z" fill="url(#paint4_linear)"/>
</g>
<defs>
<linearGradient id="paint0_linear" x1="13.5768" y1="0.00830078" x2="13.5768" y2="26.7176" gradientUnits="userSpaceOnUse">
<stop/>
<stop offset="1"/>
</linearGradient>
<linearGradient id="paint1_linear" x1="30.2256" y1="18.3008" x2="30.2256" y2="41.7227" gradientUnits="userSpaceOnUse">
<stop/>
<stop offset="1"/>
</linearGradient>
<linearGradient id="paint2_linear" x1="12.2191" y1="42.0156" x2="12.2191" y2="54.0194" gradientUnits="userSpaceOnUse">
<stop/>
<stop offset="1"/>
</linearGradient>
<linearGradient id="paint3_linear" x1="30.2379" y1="0" x2="30.2379" y2="60.0473" gradientUnits="userSpaceOnUse">
<stop/>
<stop offset="1"/>
</linearGradient>
<linearGradient id="paint4_linear" x1="46.2315" y1="40.3081" x2="46.2315" y2="51.7258" gradientUnits="userSpaceOnUse">
<stop/>
<stop offset="1"/>
</linearGradient>
<clipPath id="clip0">
<rect width="60" height="60" fill="white" transform="translate(0.157471)"/>
</clipPath>
</defs>
</svg>
