<svg width="61" height="61" viewBox="0 0 61 61" fill="none" xmlns="http://www.w3.org/2000/svg">
<g opacity="0.75" clip-path="url(#clip0)">
<path d="M24.5082 22.8051C23.5849 22.4623 22.5833 22.4993 21.6884 22.9104C20.7934 23.321 20.1123 24.0557 19.7694 24.979L13.5356 41.7826L7.30223 24.979C6.95982 24.0557 6.27821 23.321 5.38328 22.9104C4.4879 22.4993 3.48631 22.4618 2.56391 22.8047C1.64061 23.1475 0.905895 23.8287 0.49528 24.7236C0.0846664 25.619 0.0471299 26.6201 0.389537 27.5434L4.53093 38.7078C4.69984 39.1629 5.20567 39.3949 5.66069 39.226C6.11616 39.0571 6.34779 38.5513 6.17933 38.0963L2.03749 26.9319C1.8585 26.4489 1.71659 25.0207 3.17549 24.4526C4.63438 23.8845 5.47483 25.1072 5.65428 25.5902L12.7116 44.6157C12.8398 44.96 13.1685 45.1889 13.5361 45.1889C13.9032 45.1889 14.2323 44.9604 14.36 44.6157L21.4178 25.5902C21.5973 25.1072 22.4359 23.8941 23.8966 24.4531C25.3573 25.012 25.2136 26.4489 25.0342 26.9319L17.1886 48.0819C16.5834 49.7129 15.1497 50.7672 13.5361 50.7672C11.9224 50.7672 10.4887 49.7129 9.88356 48.0819L7.37364 41.3153C7.20472 40.8602 6.69889 40.6286 6.24388 40.7971C5.78886 40.966 5.55677 41.4718 5.72569 41.9268L8.23561 48.693C9.09895 51.0208 11.1799 52.525 13.5361 52.525C15.8926 52.525 17.9732 51.0208 18.8365 48.693L26.6821 27.5434C27.025 26.6201 26.9874 25.619 26.5768 24.7236C26.1658 23.8287 25.431 23.1471 24.5082 22.8051Z" fill="black"/>
<path d="M31.9611 22.5747C29.9286 22.5747 28.2747 24.2281 28.2747 26.2611V48.838C28.2747 50.8709 29.9286 52.5248 31.9611 52.5248C33.994 52.5248 35.6475 50.8709 35.6475 48.838V26.2611C35.6475 24.2281 33.994 22.5747 31.9611 22.5747ZM33.8896 48.838C33.8896 49.9018 33.0245 50.767 31.9611 50.767C30.8977 50.767 30.0325 49.9018 30.0325 48.838V26.2611C30.0325 25.1972 30.8977 24.3321 31.9611 24.3321C33.0249 24.3321 33.8896 25.1972 33.8896 26.2611V48.838Z" fill="black"/>
<path d="M59.6923 30.4112C59.5522 29.9465 59.062 29.6833 58.5974 29.8234C58.1327 29.963 57.8691 30.4533 58.0091 30.9184C58.2682 31.7785 58.3996 32.6743 58.3996 33.5807C58.3996 38.6802 54.2509 42.8289 49.1514 42.8289H44.6392C44.154 42.8289 43.7603 43.2226 43.7603 43.7078V48.8384C43.7603 49.9018 42.8952 50.767 41.8318 50.767C40.7684 50.767 39.9032 49.9018 39.9032 48.8384V26.2611C39.9032 25.1972 40.7684 24.3321 41.8318 24.3321H49.1514C52.0491 24.3321 54.7265 25.6573 56.4967 27.9676C56.7919 28.3526 57.3435 28.4258 57.7285 28.1306C58.114 27.8353 58.1872 27.2837 57.8919 26.8983C55.7862 24.1503 52.6007 22.5747 49.1514 22.5747H41.8318C39.7989 22.5747 38.1454 24.2281 38.1454 26.2611V48.838C38.1454 50.8709 39.7989 52.5248 41.8318 52.5248C43.8643 52.5248 45.5181 50.8709 45.5181 48.838V44.5867H49.1514C55.22 44.5867 60.1574 39.6493 60.1574 33.5807C60.1574 32.5022 60.0009 31.4361 59.6923 30.4112Z" fill="black"/>
<path d="M44.6393 28.1895C44.1541 28.1895 43.7604 28.5827 43.7604 29.0684V38.0923C43.7604 38.5779 44.1541 38.9712 44.6393 38.9712H49.1515C52.1242 38.9712 54.5421 36.5528 54.5421 33.5805C54.5421 30.6078 52.1242 28.1895 49.1515 28.1895H44.6393ZM52.7847 33.5805C52.7847 35.5837 51.1546 37.2133 49.1515 37.2133H45.5182V29.9473H49.1515C51.1546 29.9473 52.7847 31.5769 52.7847 33.5805Z" fill="black"/>
<path d="M39.9591 18.5272C39.9591 17.6245 39.5966 16.8051 39.0102 16.2059C39.5279 15.0491 40.2447 13.5559 41.0673 12.1451C41.4821 11.4342 41.4207 10.5585 40.9113 9.91348C40.399 9.26575 39.5563 9.00253 38.7643 9.24332C37.8204 9.52988 36.9736 9.94919 36.2471 10.4898C36.1262 10.5795 35.9532 10.5649 35.8447 10.4559C35.3691 9.97757 34.6907 9.28726 33.8278 8.40515C33.3325 7.89886 32.6692 7.61963 31.961 7.61963C31.2529 7.61963 30.59 7.89886 30.0947 8.40515C29.2319 9.28726 28.553 9.97757 28.0774 10.4559C27.9689 10.5649 27.7963 10.5795 27.6755 10.4898C26.949 9.94965 26.1021 9.52988 25.1578 9.24332C24.3658 9.00208 23.5231 9.26529 23.0108 9.91348C22.5014 10.5585 22.44 11.4342 22.8547 12.1451C23.6828 13.5646 24.4034 15.0688 24.9119 16.2059C24.3255 16.8051 23.9635 17.6245 23.9635 18.5272C23.9635 20.3592 25.4539 21.8501 27.2859 21.8501H36.6362C38.4682 21.8497 39.9591 20.3592 39.9591 18.5272ZM24.3901 11.0034C24.4354 10.9457 26.0628 11.4809 26.6267 11.9002C27.4443 12.5081 28.6038 12.4197 29.3243 11.6946C29.8031 11.2131 30.4848 10.5196 31.3513 9.63425C31.5134 9.46854 31.7299 9.37744 31.961 9.37744C32.1927 9.37744 32.4092 9.46854 32.5712 9.63425C33.4373 10.5196 34.1194 11.2131 34.5978 11.6946C35.3183 12.4197 36.4783 12.5081 37.2958 11.9002C37.8598 11.4809 39.4867 10.9457 39.5325 11.0034C39.5956 11.084 38.0141 14.14 37.484 15.3146C37.213 15.2428 26.7091 15.2428 26.4386 15.3146C25.9158 14.1574 24.3265 11.084 24.3901 11.0034ZM36.6362 20.0923H27.2859C26.423 20.0923 25.7213 19.3901 25.7213 18.5272C25.7213 17.6643 26.423 16.9621 27.2859 16.9621H36.6362C37.4991 16.9621 38.2013 17.6643 38.2013 18.5272C38.2013 19.3901 37.4991 20.0923 36.6362 20.0923Z" fill="black"/>
<path d="M45.3854 17.6862C45.8112 17.9196 46.3454 17.7631 46.5779 17.3369C46.8109 16.9112 46.1925 16.1247 46.1925 16.0835C46.1925 16.0423 46.8713 15.6711 46.8713 15.6711C47.661 15.2394 48.3069 14.5935 48.739 13.8034C48.739 13.8034 49.1103 13.125 49.1515 13.125C49.1927 13.125 49.5634 13.8034 49.5634 13.8034C49.9956 14.5935 50.6415 15.2394 51.4316 15.6711C51.4316 15.6711 52.11 16.0423 52.11 16.0835C52.11 16.1247 51.4311 16.4955 51.4311 16.4955C50.6415 16.9281 49.9956 17.5735 49.5634 18.3636C49.5634 18.3636 49.1927 19.042 49.1515 19.042C49.1103 19.042 48.5316 18.3032 47.8976 18.6566C47.4738 18.8933 47.3154 19.4238 47.5484 19.8495C47.8688 20.4359 48.4831 20.7999 49.1515 20.7999C49.8193 20.7999 50.4336 20.4359 50.7541 19.8495L51.1056 19.2073C51.3762 18.7129 51.7804 18.3083 52.2748 18.0377L52.9175 17.6866C53.5034 17.3657 53.8678 16.7514 53.8678 16.0835C53.8678 15.4152 53.5034 14.8013 52.9175 14.4804L52.2748 14.1289C51.7804 13.8583 51.3762 13.4541 51.1056 12.9597L50.7541 12.3175C50.4336 11.7311 49.8193 11.3672 49.1515 11.3672C48.4831 11.3672 47.8688 11.7311 47.5484 12.3175L47.1968 12.9597C46.9263 13.4541 46.5221 13.8583 46.0277 14.1289L45.385 14.4804C44.799 14.8009 44.4347 15.4152 44.4347 16.0835C44.4347 16.7514 44.799 17.3657 45.3854 17.6862Z" fill="black"/>
<path d="M11.9641 14.2954L12.4466 14.5591C12.7812 14.7422 13.0545 15.0155 13.2372 15.3497L13.5013 15.8321C13.7801 16.3426 14.3152 16.6598 14.897 16.6598C15.4784 16.6598 16.0135 16.3426 16.2923 15.8321L16.5564 15.3497C16.739 15.0155 17.0128 14.7418 17.347 14.5591L17.8294 14.2954C18.3398 14.0162 18.6566 13.4815 18.6566 12.8997C18.6571 12.3179 18.3398 11.7832 17.8294 11.504L17.347 11.2403C17.0128 11.0572 16.739 10.7839 16.5564 10.4493L16.2923 9.96728C16.0135 9.45688 15.4788 9.13965 14.897 9.13965C14.3152 9.13965 13.7801 9.45642 13.5013 9.96728L13.2372 10.4493C13.0545 10.7839 12.7808 11.0572 12.4466 11.2403L11.9641 11.504C11.4537 11.7832 11.1365 12.3179 11.1369 12.8997C11.1369 13.4815 11.4537 14.0162 11.9641 14.2954ZM14.897 11.0783L16.718 12.8997L14.897 14.7207L13.0756 12.8997L14.897 11.0783Z" fill="black"/>
</g>
<defs>
<clipPath id="clip0">
<rect width="60" height="60" fill="white" transform="translate(0.157471 0.00244141)"/>
</clipPath>
</defs>
</svg>
